<svg width="229" height="14" viewBox="0 0 229 14" fill="none" xmlns="http://www.w3.org/2000/svg">
<path d="M3.09588 5.528V11H1.43988V2.48H2.75988L7.16388 8.096V2.492H8.81988V11H7.43988L3.09588 5.528ZM10.9762 8.648V4.712H12.5842V8.3C12.5842 8.78 12.6722 9.144 12.8482 9.392C13.0242 9.632 13.2842 9.752 13.6282 9.752C13.8362 9.752 14.0402 9.712 14.2402 9.632C14.4482 9.544 14.6362 9.416 14.8042 9.248C14.9802 9.08 15.1282 8.868 15.2482 8.612V4.712H16.8562V9.2C16.8562 9.368 16.8842 9.488 16.9402 9.56C17.0042 9.632 17.1042 9.676 17.2402 9.692V11C17.0802 11.024 16.9442 11.04 16.8322 11.048C16.7282 11.064 16.6322 11.072 16.5442 11.072C16.2562 11.072 16.0202 11.008 15.8362 10.88C15.6602 10.744 15.5562 10.56 15.5242 10.328L15.4882 9.824C15.2082 10.248 14.8482 10.572 14.4082 10.796C13.9682 11.012 13.4842 11.12 12.9562 11.12C12.3082 11.12 11.8162 10.912 11.4802 10.496C11.1442 10.072 10.9762 9.456 10.9762 8.648ZM21.9702 11.12C21.4662 11.12 21.0102 11.036 20.6022 10.868C20.1942 10.692 19.8462 10.456 19.5582 10.16C19.2702 9.856 19.0462 9.512 18.8862 9.128C18.7342 8.736 18.6582 8.324 18.6582 7.892C18.6582 7.292 18.7902 6.744 19.0542 6.248C19.3262 5.752 19.7102 5.356 20.2062 5.06C20.7102 4.756 21.3022 4.604 21.9822 4.604C22.6702 4.604 23.2582 4.756 23.7462 5.06C24.2342 5.356 24.6062 5.752 24.8622 6.248C25.1262 6.736 25.2582 7.264 25.2582 7.832C25.2582 7.928 25.2542 8.028 25.2462 8.132C25.2382 8.228 25.2302 8.308 25.2222 8.372H20.3622C20.3942 8.692 20.4862 8.972 20.6382 9.212C20.7982 9.452 20.9982 9.636 21.2382 9.764C21.4862 9.884 21.7502 9.944 22.0302 9.944C22.3502 9.944 22.6502 9.868 22.9302 9.716C23.2182 9.556 23.4142 9.348 23.5182 9.092L24.8982 9.476C24.7462 9.796 24.5262 10.08 24.2382 10.328C23.9582 10.576 23.6262 10.772 23.2422 10.916C22.8582 11.052 22.4342 11.12 21.9702 11.12ZM20.3262 7.352H23.6142C23.5822 7.032 23.4902 6.756 23.3382 6.524C23.1942 6.284 23.0022 6.1 22.7622 5.972C22.5222 5.836 22.2542 5.768 21.9582 5.768C21.6702 5.768 21.4062 5.836 21.1662 5.972C20.9342 6.1 20.7422 6.284 20.5902 6.524C20.4462 6.756 20.3582 7.032 20.3262 7.352ZM28.354 11L26.038 4.712H27.706L29.29 9.536L30.886 4.712H32.41L30.106 11H28.354ZM36.5527 11.12C36.0407 11.12 35.5807 11.036 35.1727 10.868C34.7647 10.692 34.4167 10.452 34.1287 10.148C33.8487 9.844 33.6327 9.496 33.4807 9.104C33.3287 8.712 33.2527 8.3 33.2527 7.868C33.2527 7.428 33.3287 7.012 33.4807 6.62C33.6327 6.228 33.8487 5.88 34.1287 5.576C34.4167 5.272 34.7647 5.036 35.1727 4.868C35.5807 4.692 36.0407 4.604 36.5527 4.604C37.0647 4.604 37.5207 4.692 37.9207 4.868C38.3287 5.036 38.6767 5.272 38.9647 5.576C39.2527 5.88 39.4687 6.228 39.6127 6.62C39.7647 7.012 39.8407 7.428 39.8407 7.868C39.8407 8.3 39.7647 8.712 39.6127 9.104C39.4687 9.496 39.2527 9.844 38.9647 10.148C38.6847 10.452 38.3407 10.692 37.9327 10.868C37.5247 11.036 37.0647 11.12 36.5527 11.12ZM34.9087 7.868C34.9087 8.236 34.9807 8.564 35.1247 8.852C35.2687 9.132 35.4647 9.352 35.7127 9.512C35.9607 9.672 36.2407 9.752 36.5527 9.752C36.8567 9.752 37.1327 9.672 37.3807 9.512C37.6287 9.344 37.8247 9.12 37.9687 8.84C38.1207 8.552 38.1967 8.224 38.1967 7.856C38.1967 7.496 38.1207 7.172 37.9687 6.884C37.8247 6.596 37.6287 6.372 37.3807 6.212C37.1327 6.052 36.8567 5.972 36.5527 5.972C36.2407 5.972 35.9607 6.056 35.7127 6.224C35.4647 6.384 35.2687 6.608 35.1247 6.896C34.9807 7.176 34.9087 7.5 34.9087 7.868Z" fill="white"/>
<path d="M62.0079 11C62.0079 10.64 62.0359 10.316 62.0919 10.028C62.1479 9.74 62.2439 9.472 62.3799 9.224C62.5239 8.976 62.7159 8.744 62.9559 8.528C63.2039 8.304 63.5159 8.088 63.8919 7.88C64.2199 7.704 64.5079 7.552 64.7559 7.424C65.0039 7.288 65.2119 7.164 65.3799 7.052C65.5559 6.94 65.6879 6.828 65.7759 6.716C65.8639 6.596 65.9079 6.46 65.9079 6.308C65.9079 6.148 65.8639 6.004 65.7759 5.876C65.6879 5.74 65.5639 5.632 65.4039 5.552C65.2439 5.472 65.0439 5.432 64.8039 5.432C64.6119 5.432 64.4319 5.456 64.2639 5.504C64.1039 5.552 63.9519 5.62 63.8079 5.708C63.6719 5.796 63.5439 5.896 63.4239 6.008C63.3039 6.112 63.1959 6.224 63.0999 6.344L62.0799 5.168C62.1919 5.056 62.3399 4.936 62.5239 4.808C62.7159 4.672 62.9399 4.548 63.1959 4.436C63.4599 4.316 63.7479 4.22 64.0599 4.148C64.3799 4.068 64.7199 4.028 65.0799 4.028C65.6239 4.028 66.0879 4.116 66.4719 4.292C66.8559 4.46 67.1479 4.696 67.3479 5C67.5559 5.304 67.6599 5.66 67.6599 6.068C67.6599 6.348 67.6079 6.596 67.5039 6.812C67.3999 7.028 67.2679 7.22 67.1079 7.388C66.9479 7.548 66.7719 7.692 66.5799 7.82C66.3959 7.948 66.2159 8.06 66.0399 8.156C65.7919 8.284 65.5679 8.404 65.3679 8.516C65.1679 8.62 64.9919 8.728 64.8399 8.84C64.6879 8.944 64.5519 9.052 64.4319 9.164C64.3199 9.276 64.2199 9.404 64.1319 9.548H67.7919V11H62.0079ZM75.7053 7.484C75.7053 8.188 75.5693 8.816 75.2973 9.368C75.0333 9.912 74.6653 10.34 74.1933 10.652C73.7293 10.964 73.2013 11.12 72.6093 11.12C72.0173 11.12 71.4853 10.964 71.0133 10.652C70.5493 10.34 70.1813 9.912 69.9093 9.368C69.6453 8.816 69.5133 8.188 69.5133 7.484C69.5133 6.78 69.6453 6.156 69.9093 5.612C70.1813 5.06 70.5493 4.628 71.0133 4.316C71.4853 3.996 72.0173 3.836 72.6093 3.836C73.2013 3.836 73.7293 3.996 74.1933 4.316C74.6653 4.628 75.0333 5.06 75.2973 5.612C75.5693 6.156 75.7053 6.78 75.7053 7.484ZM74.0853 7.484C74.0853 7.052 74.0213 6.676 73.8933 6.356C73.7733 6.028 73.6013 5.772 73.3773 5.588C73.1533 5.404 72.8973 5.312 72.6093 5.312C72.3133 5.312 72.0533 5.404 71.8293 5.588C71.6053 5.772 71.4293 6.028 71.3013 6.356C71.1813 6.676 71.1213 7.052 71.1213 7.484C71.1213 7.916 71.1813 8.292 71.3013 8.612C71.4293 8.932 71.6053 9.184 71.8293 9.368C72.0533 9.552 72.3133 9.644 72.6093 9.644C72.8973 9.644 73.1493 9.552 73.3653 9.368C73.5893 9.184 73.7653 8.932 73.8933 8.612C74.0213 8.284 74.0853 7.908 74.0853 7.484ZM77.3524 11C77.3524 10.64 77.3804 10.316 77.4364 10.028C77.4924 9.74 77.5884 9.472 77.7244 9.224C77.8684 8.976 78.0604 8.744 78.3004 8.528C78.5484 8.304 78.8604 8.088 79.2364 7.88C79.5644 7.704 79.8524 7.552 80.1004 7.424C80.3484 7.288 80.5564 7.164 80.7244 7.052C80.9004 6.94 81.0324 6.828 81.1204 6.716C81.2084 6.596 81.2524 6.46 81.2524 6.308C81.2524 6.148 81.2084 6.004 81.1204 5.876C81.0324 5.74 80.9084 5.632 80.7484 5.552C80.5884 5.472 80.3884 5.432 80.1484 5.432C79.9564 5.432 79.7764 5.456 79.6084 5.504C79.4484 5.552 79.2964 5.62 79.1524 5.708C79.0164 5.796 78.8884 5.896 78.7684 6.008C78.6484 6.112 78.5404 6.224 78.4444 6.344L77.4244 5.168C77.5364 5.056 77.6844 4.936 77.8684 4.808C78.0604 4.672 78.2844 4.548 78.5404 4.436C78.8044 4.316 79.0924 4.22 79.4044 4.148C79.7244 4.068 80.0644 4.028 80.4244 4.028C80.9684 4.028 81.4324 4.116 81.8164 4.292C82.2004 4.46 82.4924 4.696 82.6924 5C82.9004 5.304 83.0044 5.66 83.0044 6.068C83.0044 6.348 82.9524 6.596 82.8484 6.812C82.7444 7.028 82.6124 7.22 82.4524 7.388C82.2924 7.548 82.1164 7.692 81.9244 7.82C81.7404 7.948 81.5604 8.06 81.3844 8.156C81.1364 8.284 80.9124 8.404 80.7124 8.516C80.5124 8.62 80.3364 8.728 80.1844 8.84C80.0324 8.944 79.8964 9.052 79.7764 9.164C79.6644 9.276 79.5644 9.404 79.4764 9.548H83.1364V11H77.3524ZM89.9098 9.548V11H85.0378V9.548H86.7418V5.912C86.6698 6.008 86.5578 6.108 86.4058 6.212C86.2538 6.308 86.0818 6.4 85.8898 6.488C85.6978 6.576 85.5058 6.648 85.3138 6.704C85.1218 6.76 84.9498 6.788 84.7978 6.788V5.288C84.9418 5.288 85.1138 5.244 85.3138 5.156C85.5218 5.06 85.7258 4.948 85.9258 4.82C86.1338 4.692 86.3098 4.568 86.4538 4.448C86.6058 4.32 86.7018 4.22 86.7418 4.148H88.3858V9.548H89.9098Z" fill="white"/>
<path d="M112.756 2.48H114.436L117.568 11H115.864L115.072 8.876H112.096L111.316 11H109.612L112.756 2.48ZM114.772 7.712L113.596 4.196L112.372 7.712H114.772ZM121.687 11.12C121.175 11.12 120.715 11.036 120.307 10.868C119.899 10.692 119.551 10.452 119.263 10.148C118.975 9.836 118.751 9.484 118.591 9.092C118.439 8.7 118.363 8.288 118.363 7.856C118.363 7.264 118.495 6.724 118.759 6.236C119.031 5.74 119.415 5.344 119.911 5.048C120.407 4.752 120.995 4.604 121.675 4.604C122.355 4.604 122.939 4.752 123.427 5.048C123.915 5.344 124.279 5.732 124.519 6.212L122.947 6.692C122.811 6.46 122.631 6.284 122.407 6.164C122.183 6.036 121.935 5.972 121.663 5.972C121.359 5.972 121.079 6.052 120.823 6.212C120.575 6.364 120.379 6.584 120.235 6.872C120.091 7.152 120.019 7.48 120.019 7.856C120.019 8.224 120.091 8.552 120.235 8.84C120.387 9.12 120.587 9.344 120.835 9.512C121.083 9.672 121.359 9.752 121.663 9.752C121.855 9.752 122.035 9.72 122.203 9.656C122.379 9.592 122.535 9.504 122.671 9.392C122.807 9.28 122.907 9.152 122.971 9.008L124.543 9.488C124.399 9.8 124.187 10.08 123.907 10.328C123.635 10.576 123.311 10.772 122.935 10.916C122.567 11.052 122.151 11.12 121.687 11.12ZM126.072 8.648V4.712H127.68V8.3C127.68 8.78 127.768 9.144 127.944 9.392C128.12 9.632 128.38 9.752 128.724 9.752C128.932 9.752 129.136 9.712 129.336 9.632C129.544 9.544 129.732 9.416 129.9 9.248C130.076 9.08 130.224 8.868 130.344 8.612V4.712H131.952V9.2C131.952 9.368 131.98 9.488 132.036 9.56C132.1 9.632 132.2 9.676 132.336 9.692V11C132.176 11.024 132.04 11.04 131.928 11.048C131.824 11.064 131.728 11.072 131.64 11.072C131.352 11.072 131.116 11.008 130.932 10.88C130.756 10.744 130.652 10.56 130.62 10.328L130.584 9.824C130.304 10.248 129.944 10.572 129.504 10.796C129.064 11.012 128.58 11.12 128.052 11.12C127.404 11.12 126.912 10.912 126.576 10.496C126.24 10.072 126.072 9.456 126.072 8.648ZM129.54 3.98L128.508 3.668L129.156 2.24H130.656L129.54 3.98ZM136.466 11.12C135.93 11.12 135.418 11.032 134.93 10.856C134.442 10.68 134.022 10.42 133.67 10.076L134.246 9.032C134.622 9.336 134.99 9.56 135.35 9.704C135.718 9.848 136.07 9.92 136.406 9.92C136.718 9.92 136.966 9.864 137.15 9.752C137.342 9.64 137.438 9.472 137.438 9.248C137.438 9.096 137.386 8.98 137.282 8.9C137.178 8.812 137.026 8.736 136.826 8.672C136.634 8.608 136.398 8.536 136.118 8.456C135.654 8.304 135.266 8.156 134.954 8.012C134.642 7.868 134.406 7.688 134.246 7.472C134.094 7.248 134.018 6.964 134.018 6.62C134.018 6.204 134.122 5.848 134.33 5.552C134.546 5.248 134.842 5.012 135.218 4.844C135.602 4.676 136.05 4.592 136.562 4.592C137.01 4.592 137.434 4.664 137.834 4.808C138.234 4.944 138.598 5.168 138.926 5.48L138.278 6.5C137.958 6.252 137.654 6.072 137.366 5.96C137.078 5.84 136.786 5.78 136.49 5.78C136.322 5.78 136.162 5.8 136.01 5.84C135.866 5.88 135.746 5.948 135.65 6.044C135.562 6.132 135.518 6.26 135.518 6.428C135.518 6.58 135.558 6.7 135.638 6.788C135.726 6.868 135.854 6.94 136.022 7.004C136.198 7.068 136.41 7.14 136.658 7.22C137.162 7.364 137.586 7.512 137.93 7.664C138.282 7.816 138.546 8.004 138.722 8.228C138.898 8.444 138.986 8.744 138.986 9.128C138.986 9.752 138.758 10.24 138.302 10.592C137.846 10.944 137.234 11.12 136.466 11.12ZM140.644 11V9.272H141.964V11H140.644ZM143.939 11V9.272H145.259V11H143.939ZM147.235 11V9.272H148.555V11H147.235Z" fill="white"/>
<path d="M180.388 11V5.408L178.204 9.572H177.28L175.096 5.408V11H173.44V2.48H175.216L177.736 7.328L180.28 2.48H182.044V11H180.388ZM184.231 11V9.272H185.551V11H184.231ZM190.685 6.68C190.685 6.16 190.777 5.652 190.961 5.156C191.153 4.652 191.429 4.196 191.789 3.788C192.149 3.372 192.589 3.044 193.109 2.804C193.629 2.556 194.221 2.432 194.885 2.432C195.669 2.432 196.345 2.604 196.913 2.948C197.489 3.292 197.917 3.74 198.197 4.292L196.925 5.168C196.781 4.848 196.593 4.596 196.361 4.412C196.129 4.22 195.881 4.088 195.617 4.016C195.353 3.936 195.093 3.896 194.837 3.896C194.421 3.896 194.057 3.98 193.745 4.148C193.441 4.316 193.185 4.536 192.977 4.808C192.769 5.08 192.613 5.384 192.509 5.72C192.413 6.056 192.365 6.392 192.365 6.728C192.365 7.104 192.425 7.468 192.545 7.82C192.665 8.164 192.833 8.472 193.049 8.744C193.273 9.008 193.537 9.22 193.841 9.38C194.153 9.532 194.493 9.608 194.861 9.608C195.125 9.608 195.393 9.564 195.665 9.476C195.937 9.388 196.189 9.248 196.421 9.056C196.653 8.864 196.833 8.616 196.961 8.312L198.317 9.092C198.149 9.516 197.873 9.876 197.489 10.172C197.113 10.468 196.689 10.692 196.217 10.844C195.745 10.996 195.277 11.072 194.813 11.072C194.205 11.072 193.649 10.948 193.145 10.7C192.641 10.444 192.205 10.108 191.837 9.692C191.477 9.268 191.193 8.796 190.985 8.276C190.785 7.748 190.685 7.216 190.685 6.68ZM202.764 11.12C202.26 11.12 201.804 11.036 201.396 10.868C200.988 10.692 200.64 10.456 200.352 10.16C200.064 9.856 199.84 9.512 199.68 9.128C199.528 8.736 199.452 8.324 199.452 7.892C199.452 7.292 199.584 6.744 199.848 6.248C200.12 5.752 200.504 5.356 201 5.06C201.504 4.756 202.096 4.604 202.776 4.604C203.464 4.604 204.052 4.756 204.54 5.06C205.028 5.356 205.4 5.752 205.656 6.248C205.92 6.736 206.052 7.264 206.052 7.832C206.052 7.928 206.048 8.028 206.04 8.132C206.032 8.228 206.024 8.308 206.016 8.372H201.156C201.188 8.692 201.28 8.972 201.432 9.212C201.592 9.452 201.792 9.636 202.032 9.764C202.28 9.884 202.544 9.944 202.824 9.944C203.144 9.944 203.444 9.868 203.724 9.716C204.012 9.556 204.208 9.348 204.312 9.092L205.692 9.476C205.54 9.796 205.32 10.08 205.032 10.328C204.752 10.576 204.42 10.772 204.036 10.916C203.652 11.052 203.228 11.12 202.764 11.12ZM201.12 7.352H204.408C204.376 7.032 204.284 6.756 204.132 6.524C203.988 6.284 203.796 6.1 203.556 5.972C203.316 5.836 203.048 5.768 202.752 5.768C202.464 5.768 202.2 5.836 201.96 5.972C201.728 6.1 201.536 6.284 201.384 6.524C201.24 6.756 201.152 7.032 201.12 7.352ZM207.248 7.856C207.248 7.248 207.368 6.7 207.608 6.212C207.848 5.716 208.18 5.324 208.604 5.036C209.028 4.748 209.512 4.604 210.056 4.604C210.52 4.604 210.936 4.72 211.304 4.952C211.68 5.176 211.972 5.464 212.18 5.816V2.24H213.788V9.2C213.788 9.368 213.816 9.488 213.872 9.56C213.928 9.632 214.024 9.676 214.16 9.692V11C213.88 11.056 213.652 11.084 213.476 11.084C213.188 11.084 212.948 11.012 212.756 10.868C212.572 10.724 212.468 10.536 212.444 10.304L212.42 9.908C212.188 10.3 211.872 10.6 211.472 10.808C211.08 11.016 210.668 11.12 210.236 11.12C209.804 11.12 209.404 11.036 209.036 10.868C208.676 10.7 208.36 10.468 208.088 10.172C207.824 9.876 207.616 9.532 207.464 9.14C207.32 8.74 207.248 8.312 207.248 7.856ZM212.18 8.696V7.196C212.1 6.964 211.972 6.756 211.796 6.572C211.62 6.388 211.424 6.244 211.208 6.14C210.992 6.028 210.776 5.972 210.56 5.972C210.312 5.972 210.088 6.024 209.888 6.128C209.688 6.232 209.512 6.372 209.36 6.548C209.216 6.724 209.104 6.928 209.024 7.16C208.952 7.392 208.916 7.636 208.916 7.892C208.916 8.148 208.956 8.392 209.036 8.624C209.124 8.848 209.248 9.044 209.408 9.212C209.568 9.38 209.752 9.512 209.96 9.608C210.176 9.704 210.408 9.752 210.656 9.752C210.808 9.752 210.96 9.728 211.112 9.68C211.272 9.624 211.42 9.552 211.556 9.464C211.7 9.368 211.824 9.256 211.928 9.128C212.04 8.992 212.124 8.848 212.18 8.696ZM219.71 6.104C219.222 6.104 218.786 6.2 218.402 6.392C218.018 6.576 217.742 6.844 217.574 7.196V11H215.966V4.712H217.442V6.056C217.666 5.624 217.95 5.284 218.294 5.036C218.638 4.788 219.002 4.652 219.386 4.628C219.474 4.628 219.542 4.628 219.59 4.628C219.638 4.628 219.678 4.632 219.71 4.64V6.104ZM224.029 11.12C223.517 11.12 223.057 11.036 222.649 10.868C222.241 10.692 221.893 10.452 221.605 10.148C221.325 9.844 221.109 9.496 220.957 9.104C220.805 8.712 220.729 8.3 220.729 7.868C220.729 7.428 220.805 7.012 220.957 6.62C221.109 6.228 221.325 5.88 221.605 5.576C221.893 5.272 222.241 5.036 222.649 4.868C223.057 4.692 223.517 4.604 224.029 4.604C224.541 4.604 224.997 4.692 225.397 4.868C225.805 5.036 226.153 5.272 226.441 5.576C226.729 5.88 226.945 6.228 227.089 6.62C227.241 7.012 227.317 7.428 227.317 7.868C227.317 8.3 227.241 8.712 227.089 9.104C226.945 9.496 226.729 9.844 226.441 10.148C226.161 10.452 225.817 10.692 225.409 10.868C225.001 11.036 224.541 11.12 224.029 11.12ZM222.385 7.868C222.385 8.236 222.457 8.564 222.601 8.852C222.745 9.132 222.941 9.352 223.189 9.512C223.437 9.672 223.717 9.752 224.029 9.752C224.333 9.752 224.609 9.672 224.857 9.512C225.105 9.344 225.301 9.12 225.445 8.84C225.597 8.552 225.673 8.224 225.673 7.856C225.673 7.496 225.597 7.172 225.445 6.884C225.301 6.596 225.105 6.372 224.857 6.212C224.609 6.052 224.333 5.972 224.029 5.972C223.717 5.972 223.437 6.056 223.189 6.224C222.941 6.384 222.745 6.608 222.601 6.896C222.457 7.176 222.385 7.5 222.385 7.868Z" fill="white"/>
<g clip-path="url(#clip0_3_586)">
<circle cx="51.5519" cy="7" r="2" fill="white"/>
</g>
<g clip-path="url(#clip1_3_586)">
<circle cx="99.5519" cy="7" r="2" fill="white"/>
</g>
<g clip-path="url(#clip2_3_586)">
<circle cx="162.552" cy="7" r="2" fill="white"/>
</g>
<defs>
<clipPath id="clip0_3_586">
<rect width="4" height="4" fill="white" transform="translate(49.5519 5)"/>
</clipPath>
<clipPath id="clip1_3_586">
<rect width="4" height="4" fill="white" transform="translate(97.5519 5)"/>
</clipPath>
<clipPath id="clip2_3_586">
<rect width="4" height="4" fill="white" transform="translate(160.552 5)"/>
</clipPath>
</defs>
</svg>
