<svg width="179" height="111" viewBox="0 0 179 111" fill="none" xmlns="http://www.w3.org/2000/svg">
<g filter="url(#filter0_d_3_712)">
<circle cx="55.5519" cy="53" r="15.2885" stroke="black" stroke-width="1.42308"/>
<path d="M59.831 53.8281L60.4015 50.3443H56.8349V48.0836C56.8349 47.1305 57.3332 46.2014 58.9305 46.2014H60.5519V43.2354C60.5519 43.2354 59.0805 43 57.6737 43C54.7366 43 52.8167 44.6686 52.8167 47.6892V50.3443H49.5519V53.8281H52.8167V62.25H56.8349V53.8281H59.831Z" fill="black"/>
</g>
<circle cx="162.219" cy="53" r="15.3333" stroke="black" stroke-width="1.33333"/>
<path d="M157.971 61H154.495V50.3176H157.971V61ZM156.231 48.8604C155.12 48.8604 154.219 47.9819 154.219 46.9211C154.219 46.4116 154.431 45.923 154.808 45.5627C155.185 45.2024 155.697 45 156.231 45C156.765 45 157.277 45.2024 157.654 45.5627C158.032 45.923 158.244 46.4116 158.244 46.9211C158.244 47.9819 157.342 48.8604 156.231 48.8604ZM170.977 61H167.509V55.7999C167.509 54.5606 167.483 52.9712 165.703 52.9712C163.896 52.9712 163.619 54.3177 163.619 55.7106V61H160.147V50.3176H163.48V51.7748H163.529C163.993 50.9355 165.126 50.0498 166.817 50.0498C170.334 50.0498 170.981 52.2605 170.981 55.132V61H170.977Z" fill="black"/>
<circle cx="108.885" cy="53" r="15.3333" stroke="black" stroke-width="1.33333"/>
<g clip-path="url(#clip0_3_712)">
<path d="M114.113 49.7411C114.122 49.8833 114.122 50.0254 114.122 50.1675C114.122 54.5025 111.235 59.4975 105.958 59.4975C104.332 59.4975 102.822 58.9594 101.552 58.0254C101.783 58.0558 102.005 58.066 102.245 58.066C103.586 58.066 104.821 57.5483 105.807 56.665C104.546 56.6345 103.488 55.6904 103.124 54.3909C103.302 54.4213 103.48 54.4416 103.666 54.4416C103.924 54.4416 104.181 54.401 104.421 54.33C103.106 54.0254 102.12 52.7056 102.12 51.1117V51.0711C102.502 51.3148 102.947 51.467 103.417 51.4873C102.644 50.8985 102.138 49.8934 102.138 48.7563C102.138 48.1472 102.28 47.5888 102.529 47.1015C103.941 49.0914 106.065 50.3908 108.445 50.533C108.401 50.2893 108.374 50.0356 108.374 49.7818C108.374 47.9746 109.653 46.5026 111.243 46.5026C112.07 46.5026 112.816 46.8985 113.34 47.5381C113.988 47.396 114.61 47.1218 115.161 46.7462C114.948 47.5077 114.495 48.1473 113.9 48.5533C114.477 48.4823 115.037 48.2995 115.552 48.0457C115.161 48.6954 114.672 49.2741 114.113 49.7411Z" fill="black"/>
</g>
<defs>
<filter id="filter0_d_3_712" x="0.167259" y="0.0769181" width="110.769" height="110.769" filterUnits="userSpaceOnUse" color-interpolation-filters="sRGB">
<feFlood flood-opacity="0" result="BackgroundImageFix"/>
<feColorMatrix in="SourceAlpha" type="matrix" values="0 0 0 0 0 0 0 0 0 0 0 0 0 0 0 0 0 0 127 0" result="hardAlpha"/>
<feOffset dy="2.46154"/>
<feGaussianBlur stdDeviation="19.6923"/>
<feColorMatrix type="matrix" values="0 0 0 0 0 0 0 0 0 0 0 0 0 0 0 0 0 0 0.12 0"/>
<feBlend mode="normal" in2="BackgroundImageFix" result="effect1_dropShadow_3_712"/>
<feBlend mode="normal" in="SourceGraphic" in2="effect1_dropShadow_3_712" result="shape"/>
</filter>
<clipPath id="clip0_3_712">
<rect width="14" height="16" fill="white" transform="translate(101.552 45)"/>
</clipPath>
</defs>
</svg>
